<?xml version="1.0" encoding="utf-8"?>
<svg xmlns="http://www.w3.org/2000/svg" width="91" height="48" viewBox="0 0 91 48" fill="none">
<path d="M90.9947 30.76C90.9947 31.45 90.8547 32.1 90.5647 32.73C90.2747 33.36 89.8547 33.91 89.3047 34.39C88.7547 34.87 88.0647 35.25 87.2547 35.53C86.4347 35.82 85.5047 35.96 84.4747 35.96C83.2147 35.96 82.0347 35.77 80.9147 35.38C79.9947 35.06 79.1647 34.61 78.4347 34.03C78.1747 33.82 78.1247 33.45 78.3247 33.18L79.8347 31.18C80.0447 30.91 80.4347 30.86 80.6947 31.07C81.1147 31.4 81.5847 31.67 82.1047 31.88C82.8147 32.17 83.5047 32.31 84.1447 32.31C84.8947 32.31 85.4347 32.15 85.7547 31.81C86.0747 31.48 86.2347 31.1 86.2347 30.68C86.2347 30.35 86.1047 30.05 85.8547 29.77C85.6047 29.49 85.1947 29.29 84.6447 29.16L82.7247 28.56C82.2147 28.43 81.7047 28.25 81.1947 28.01C80.6847 27.78 80.2247 27.48 79.8047 27.11C79.3847 26.75 79.0447 26.31 78.7947 25.79C78.5447 25.27 78.4147 24.66 78.4147 23.95C78.4147 23.24 78.5547 22.63 78.8247 22.03C79.1047 21.43 79.4947 20.91 80.0147 20.45C80.5347 20 81.1847 19.64 81.9547 19.37C82.7247 19.11 83.6047 18.97 84.6047 18.97C85.6647 18.97 86.6647 19.12 87.6147 19.4C88.3647 19.63 89.0747 19.95 89.7547 20.36C90.0547 20.55 90.1347 20.95 89.9247 21.24L88.5547 23.15C88.3647 23.41 88.0147 23.48 87.7347 23.31C87.4047 23.1 87.0447 22.94 86.6647 22.8C86.1047 22.6 85.5247 22.5 84.9247 22.5C84.3247 22.5 83.8747 22.63 83.5647 22.89C83.2547 23.16 83.1047 23.49 83.1047 23.88C83.1047 24.17 83.2047 24.43 83.4147 24.66C83.6247 24.89 83.9747 25.06 84.4547 25.17L85.9147 25.53C87.7447 26.04 89.0547 26.72 89.8247 27.58C90.5947 28.44 90.9847 29.48 90.9847 30.69L90.9947 30.76Z" fill="white"/>
<path d="M34.2046 19.3H37.6246C37.9646 19.3 38.2346 19.57 38.2346 19.91V35.02C38.2346 35.36 37.9646 35.63 37.6246 35.63H34.2046C33.8646 35.63 33.5946 35.36 33.5946 35.02V19.91C33.5946 19.57 33.8646 19.3 34.2046 19.3Z" fill="white"/>
<path d="M37.6346 12.35H34.2146C33.8778 12.35 33.6046 12.6231 33.6046 12.96V16.38C33.6046 16.7169 33.8778 16.99 34.2146 16.99H37.6346C37.9715 16.99 38.2446 16.7169 38.2446 16.38V12.96C38.2446 12.6231 37.9715 12.35 37.6346 12.35Z" fill="white"/>
<path d="M57.5146 35.63H53.2546C52.9546 35.63 52.6846 35.47 52.5446 35.21L49.8546 30.4L46.4146 35.28C46.2646 35.5 46.0146 35.62 45.7446 35.62H42.9046C42.5646 35.62 42.2946 35.35 42.2946 35.01V12.96C42.2946 12.62 42.5646 12.35 42.9046 12.35H46.3246C46.6646 12.35 46.9346 12.62 46.9346 12.96V27.57L52.0646 19.68C52.2146 19.45 52.4746 19.31 52.7446 19.31H56.8946C57.2246 19.31 57.4146 19.68 57.2246 19.95L52.5646 26.57L57.8646 35.02C58.0346 35.29 57.8446 35.64 57.5246 35.64L57.5146 35.63Z" fill="white"/>
<path d="M74.7746 19.3H71.8946C71.5546 19.3 71.2846 19.57 71.2846 19.91V21.41V21.39C70.6546 20.62 69.8746 20.02 68.9346 19.6C67.9946 19.18 67.0346 18.97 66.0346 18.97C65.0346 18.97 64.0046 19.19 63.0746 19.62C62.1346 20.05 61.3146 20.64 60.6246 21.39C59.9246 22.14 59.3746 23.04 58.9646 24.08C58.5546 25.12 58.3546 26.24 58.3546 27.46V27.49C58.3546 28.71 58.5546 29.83 58.9646 30.87C59.3746 31.91 59.9246 32.8 60.6246 33.56C61.3146 34.31 62.1346 34.9 63.0746 35.33C64.0146 35.76 65.0046 35.97 66.0346 35.97C67.0646 35.97 67.9946 35.76 68.9346 35.34C69.8746 34.92 70.6546 34.32 71.2746 33.55V33.53V35.03C71.2746 35.37 71.5446 35.64 71.8846 35.64H74.7646C75.1046 35.64 75.3746 35.37 75.3746 35.03V19.91C75.3746 19.57 75.1046 19.3 74.7646 19.3H74.7746ZM69.7346 30.49C68.9946 31.31 68.0446 31.71 66.8646 31.71C66.2946 31.71 65.7646 31.6 65.2746 31.38C64.7846 31.16 64.3746 30.86 64.0146 30.48C63.6546 30.1 63.3946 29.66 63.2046 29.14C63.0146 28.62 62.9246 28.06 62.9246 27.46V27.43C62.9246 26.83 63.0146 26.27 63.2046 25.76C63.3946 25.24 63.6646 24.79 64.0146 24.42C64.3646 24.04 64.7846 23.75 65.2746 23.52C65.7646 23.29 66.2946 23.19 66.8646 23.19C68.0346 23.19 68.9946 23.6 69.7346 24.41C70.4546 25.2 70.8146 26.21 70.8446 27.44C70.8246 28.67 70.4546 29.68 69.7346 30.47V30.49Z" fill="white"/>
<path d="M25.5546 22.05L13.4046 35.89C13.1946 36.12 12.8146 35.98 12.8146 35.67V26.51H0.334643C0.0446429 26.51 -0.105357 26.17 0.0846429 25.95L12.2346 12.12C12.4446 11.89 12.8246 12.03 12.8246 12.34V21.5H25.3146C25.6046 21.5 25.7546 21.84 25.5646 22.06L25.5546 22.05Z" fill="#DEFF36"/>
</svg>